<svg width="24" height="24" viewBox="0 0 24 24" fill="none" xmlns="http://www.w3.org/2000/svg">
<path d="M15.009 13.805H14.373L14.153 13.586C14.934 12.675 15.409 11.494 15.409 10.2C15.409 7.324 13.077 4.993 10.202 4.993C7.326 4.993 4.994 7.324 4.994 10.2C4.994 13.076 7.325 15.408 10.202 15.408C11.495 15.408 12.676 14.934 13.587 14.153L13.808 14.373V15.008L17.812 19.007L19.006 17.812L15.009 13.805ZM10.201 13.805C8.21 13.805 6.596 12.191 6.596 10.2C6.596 8.209 8.21 6.595 10.201 6.595C12.192 6.595 13.806 8.209 13.806 10.2C13.806 12.191 12.192 13.805 10.201 13.805Z" fill="#54656F"/>
</svg>
