<svg width="52" height="52" viewBox="0 0 52 52" fill="none" xmlns="http://www.w3.org/2000/svg">
<path d="M37.7315 31.1612C37.0876 30.8391 33.9223 29.2816 33.3321 29.0666C32.7419 28.8518 32.3127 28.7444 31.8835 29.3887C31.4543 30.0333 30.2205 31.4836 29.8448 31.9134C29.4693 32.3429 29.0937 32.3968 28.45 32.0745C27.806 31.7522 25.7315 31.0724 23.2723 28.8787C21.3582 27.1716 20.0661 25.0633 19.6905 24.4186C19.315 23.7741 19.6506 23.4257 19.9729 23.1046C20.2625 22.8161 20.6168 22.3526 20.9386 21.9767C21.2606 21.6007 21.3678 21.332 21.5825 20.9027C21.7971 20.4728 21.6898 20.0969 21.5288 19.7746C21.3678 19.4524 20.0802 16.2832 19.5437 14.9939C19.0211 13.7387 18.4903 13.9088 18.0951 13.8887C17.72 13.8701 17.2903 13.8661 16.8612 13.8661C16.4319 13.8661 15.7344 14.0272 15.1443 14.6717C14.5541 15.3164 12.8908 16.874 12.8908 20.043C12.8908 23.2121 15.1979 26.2735 15.5199 26.7032C15.8417 27.133 20.0598 33.6361 26.5185 36.425C28.0546 37.0884 29.2539 37.4846 30.1888 37.7811C31.7313 38.2714 33.1348 38.2022 34.2441 38.0364C35.4811 37.8516 38.0533 36.4789 38.5899 34.975C39.1264 33.4709 39.1264 32.1819 38.9654 31.9134C38.8045 31.6448 38.3753 31.4836 37.7315 31.1612ZM25.9839 47.2014H25.9752C22.1323 47.1999 18.3629 46.1675 15.0746 44.2161L14.2926 43.7519L6.18675 45.8782L8.35027 37.9751L7.84111 37.1648C5.69724 33.7549 4.565 29.814 4.56661 25.7672C4.57131 13.9588 14.179 4.35188 25.9924 4.35188C31.7129 4.35385 37.0902 6.58459 41.1338 10.6328C45.1773 14.6808 47.4029 20.0619 47.4008 25.7843C47.396 37.5937 37.7883 47.2014 25.9839 47.2014ZM44.2113 7.55669C39.3464 2.68615 32.8767 0.00271815 25.9836 0C11.7809 0 0.221653 11.5584 0.215969 25.7654C0.214116 30.307 1.40059 34.7398 3.65554 38.6476L0 52L13.6597 48.4167C17.4233 50.4696 21.6608 51.5516 25.9734 51.5531H25.9839C40.1851 51.5531 51.7456 39.9935 51.7513 25.7861C51.7539 18.9011 49.0761 12.4271 44.2113 7.55669Z" fill="#DEDCDA"/>
</svg>
