<svg width="24" height="24" viewBox="0 0 24 24" fill="none" xmlns="http://www.w3.org/2000/svg">
<path d="M3.27096 7.31042C3 7.82381 3 8.49587 3 9.84V14.16C3 15.5041 3 16.1762 3.27096 16.6896C3.5093 17.1412 3.88961 17.5083 4.35738 17.7384C4.88916 18 5.58531 18 6.9776 18H13.1097C14.502 18 15.1982 18 15.7299 17.7384C16.1977 17.5083 16.578 17.1412 16.8164 16.6896C17.0873 16.1762 17.0873 15.5041 17.0873 14.16V9.84C17.0873 8.49587 17.0873 7.82381 16.8164 7.31042C16.578 6.85883 16.1977 6.49168 15.7299 6.26158C15.1982 6 14.502 6 13.1097 6H6.9776C5.58531 6 4.88916 6 4.35738 6.26158C3.88961 6.49168 3.5093 6.85883 3.27096 7.31042Z" fill="#54656F"/>
<path d="M18.7308 9.60844C18.5601 9.75994 18.4629 9.97355 18.4629 10.1974V13.8026C18.4629 14.0264 18.5601 14.2401 18.7308 14.3916L20.9567 16.3669C21.4879 16.8384 22.3462 16.4746 22.3462 15.778V8.22203C22.3462 7.52542 21.4879 7.16163 20.9567 7.63306L18.7308 9.60844Z" fill="#54656F"/>
</svg>
