<svg width="161" height="30" viewBox="0 0 161 30" fill="none" xmlns="http://www.w3.org/2000/svg">
<path fill-rule="evenodd" clip-rule="evenodd" d="M104.428 2.625H107.843V22.4099H104.428V2.625ZM44.4389 20.5518C44.9851 21.2624 45.7154 21.8101 46.5507 22.1354C47.5885 22.5344 48.6948 22.725 49.8062 22.6963C50.887 22.716 51.9611 22.5226 52.9671 22.1272C53.8191 21.7979 54.5657 21.2434 55.127 20.5228C55.6489 19.8306 55.924 18.9836 55.9086 18.1168V18.1029C55.9307 17.64 55.8568 17.1776 55.6916 16.7446C55.5264 16.3116 55.2735 15.9175 54.9486 15.5869C54.3086 14.9612 53.2344 14.4791 51.726 14.1407L49.3125 13.6062C48.7327 13.509 48.1848 13.2738 47.7149 12.9206C47.5644 12.7923 47.444 12.6324 47.3622 12.4523C47.2804 12.2722 47.2394 12.0763 47.2419 11.8785V11.8649C47.2348 11.5301 47.3385 11.2024 47.5368 10.9325C47.7562 10.6505 48.0513 10.4365 48.3876 10.3155C48.8066 10.1609 49.2509 10.0864 49.6973 10.096C50.3711 10.0578 51.0367 10.2594 51.576 10.6651C52.0215 11.0235 52.3074 11.5432 52.3715 12.1113L52.3851 12.221H55.5666L55.553 12.0702C55.5245 11.2539 55.2602 10.4633 54.7918 9.79405C54.2827 9.08709 53.5939 8.52906 52.7966 8.17775C51.8202 7.75188 50.7622 7.54587 49.6973 7.57434C48.6504 7.55281 47.61 7.74411 46.6392 8.13664C45.8281 8.46065 45.1217 9.00134 44.5972 9.69962C44.1092 10.3775 43.8541 11.1954 43.8703 12.0305V12.0441C43.8528 12.5337 43.937 13.0217 44.1176 13.4771C44.2983 13.9326 44.5714 14.3457 44.9197 14.6903C45.6187 15.3759 46.6632 15.8695 48.0533 16.171L50.4668 16.7058C51.2253 16.8798 51.7509 17.1014 52.0436 17.3708C52.1881 17.5037 52.3022 17.6662 52.378 17.8473C52.4538 18.0284 52.4895 18.2238 52.4827 18.42V18.4336C52.4887 18.7727 52.3744 19.103 52.1602 19.3659C51.9191 19.6488 51.6031 19.8579 51.2484 19.969C50.7877 20.1165 50.3057 20.186 49.8221 20.1749C49.1099 20.2177 48.4023 20.0353 47.7994 19.6537C47.3163 19.3017 46.9893 18.7755 46.8876 18.1866L46.8593 18.0632H43.4996L43.5132 18.1866C43.6074 19.0429 43.9268 19.859 44.4389 20.5518ZM58.3099 19.1748C58.8344 20.2636 59.6725 21.1708 60.7166 21.7798C61.8613 22.4175 63.1567 22.7353 64.4667 22.6997C65.323 22.7128 66.1757 22.5854 66.9908 22.3226C67.6852 22.0961 68.3348 21.7507 68.9108 21.3018C69.4241 20.9013 69.8608 20.4114 70.1998 19.8556C70.5084 19.3496 70.7308 18.796 70.8581 18.2172L70.8864 18.0663H67.7049L67.6766 18.1625C67.5556 18.5094 67.3561 18.8237 67.0937 19.0809C66.7897 19.3809 66.4283 19.6164 66.0311 19.7734C65.5553 19.9601 65.0472 20.051 64.5362 20.0408C63.8487 20.0594 63.1695 19.8861 62.575 19.5403C62.0183 19.1975 61.5766 18.6961 61.3068 18.1006C61.0117 17.4322 60.8595 16.71 60.8592 15.9805H71.0359V14.8834C71.0655 13.5578 70.7862 12.2435 70.22 11.0445C69.7084 9.98331 68.8981 9.09455 67.8884 8.48736C66.7999 7.85891 65.559 7.54332 64.3025 7.57543C63.0328 7.5434 61.78 7.87147 60.689 8.52167C59.6612 9.16144 58.838 10.082 58.3167 11.1747C57.7303 12.4238 57.4416 13.7919 57.4732 15.1715V15.1848C57.439 16.5616 57.7254 17.9276 58.3099 19.1748ZM60.8982 13.7043H67.727C67.6671 13.1684 67.5304 12.6424 67.3201 12.1427C67.0684 11.5603 66.6481 11.0666 66.1133 10.7249C65.58 10.4038 64.9667 10.2399 64.3442 10.252C63.7092 10.2407 63.084 10.4095 62.541 10.7388C61.9946 11.0871 61.5648 11.5907 61.3068 12.185C61.098 12.6706 60.9608 13.1823 60.8982 13.7043ZM74.9646 22.1008C74.2577 21.7574 73.6631 21.22 73.2502 20.5514C72.8363 19.863 72.6248 19.0719 72.6399 18.2688V18.2404C72.6181 17.6512 72.738 17.0653 72.9897 16.532C73.2414 15.9988 73.6175 15.5337 74.0863 15.176C75.0506 14.4219 76.4105 13.9946 78.166 13.894L81.9658 13.6595V12.6608C81.9817 12.3389 81.9281 12.0174 81.8086 11.718C81.6891 11.4187 81.5065 11.1487 81.2732 10.9263C80.8115 10.5015 80.1463 10.289 79.2777 10.2888C78.5955 10.255 77.9197 10.4347 77.3444 10.8029C76.8835 11.1109 76.5592 11.5849 76.4391 12.126L76.4107 12.2494H73.2568L73.2704 12.0849C73.335 11.2489 73.6344 10.4481 74.1342 9.77473C74.677 9.0627 75.3985 8.50692 76.2255 8.16382C77.2312 7.74866 78.3125 7.54778 79.4003 7.57402C80.4848 7.54831 81.5623 7.75401 82.5611 8.17743C83.3961 8.53365 84.1137 9.11814 84.6314 9.86377C85.1304 10.6192 85.3864 11.5091 85.3651 12.4141V22.4093H81.9644V20.1746H81.8818C81.6094 20.6753 81.2468 21.1215 80.8124 21.4906C80.3686 21.8684 79.8591 22.1613 79.3092 22.3546C78.73 22.5583 78.12 22.6603 77.506 22.656C76.627 22.6736 75.7562 22.4834 74.9646 22.1008ZM78.6459 16.129L81.9658 15.9225V17.0211C81.973 17.5712 81.8149 18.1109 81.512 18.5702C81.2047 19.0324 80.7816 19.4059 80.2848 19.6534C79.7378 19.9253 79.1333 20.0614 78.5225 20.0504C77.8812 20.0825 77.2472 19.9016 76.7193 19.536C76.5001 19.3749 76.3236 19.1626 76.2052 18.9177C76.0869 18.6727 76.0303 18.4025 76.0403 18.1307V18.1171C76.0326 17.8492 76.0896 17.5834 76.2066 17.3423C76.3236 17.1012 76.497 16.8919 76.7122 16.7322C77.2828 16.3442 77.9558 16.1343 78.6459 16.129ZM91.5239 7.87664H88.1228L88.1254 27.2078H91.5264V19.9546H91.6087C91.8731 20.5081 92.2408 21.0061 92.6921 21.4217C93.1442 21.8355 93.673 22.1569 94.2485 22.3677C94.8613 22.5912 95.5092 22.7027 96.1615 22.6969C97.2837 22.7243 98.3871 22.4059 99.3222 21.785C100.249 21.1337 100.967 20.2293 101.393 19.1799C101.91 17.9027 102.159 16.5331 102.126 15.1556V15.142C102.16 13.7579 101.91 12.3816 101.393 11.0973C100.967 10.0425 100.242 9.13487 99.3081 8.48544C98.3583 7.86306 97.2414 7.54494 96.1061 7.57351C95.4568 7.56689 94.812 7.68321 94.206 7.91633C93.64 8.13553 93.1228 8.464 92.6838 8.88299C92.2373 9.31526 91.8723 9.82432 91.6061 10.3859H91.5239V7.87664ZM98.2227 17.632C97.975 18.2784 97.5496 18.8417 96.9955 19.2568C96.4436 19.6478 95.7801 19.8502 95.1039 19.8338C94.4367 19.8453 93.7833 19.6436 93.2388 19.2579C92.6748 18.843 92.2359 18.2809 91.9703 17.6331C91.6476 16.8488 91.4911 16.006 91.5108 15.1582V15.1446C91.4904 14.2922 91.6468 13.4449 91.9703 12.656C92.2359 12.0083 92.6748 11.4461 93.2388 11.0312C93.7829 10.6452 94.436 10.4428 95.103 10.4536C95.7749 10.4385 96.4346 10.6352 96.9884 11.0159C97.5475 11.4217 97.9764 11.9815 98.2227 12.6268C98.5291 13.4294 98.6758 14.2841 98.6546 15.1429V15.157C98.6736 16.0023 98.5269 16.8431 98.2227 17.632ZM110.77 20.5514C111.183 21.22 111.777 21.7574 112.484 22.1008C113.276 22.4836 114.147 22.6738 115.027 22.656C115.641 22.6603 116.251 22.5583 116.83 22.3546C117.38 22.1612 117.889 21.8683 118.332 21.4906C118.766 21.1215 119.129 20.6753 119.401 20.1746H119.484V22.4093H122.885V12.4141C122.906 11.5091 122.65 10.6192 122.151 9.86377C121.633 9.11814 120.916 8.53365 120.081 8.17743C119.082 7.75401 118.004 7.54831 116.92 7.57402C115.832 7.54778 114.751 7.74866 113.745 8.16382C112.918 8.50693 112.197 9.0627 111.654 9.77473C111.154 10.4481 110.854 11.2489 110.79 12.0849L110.776 12.2494H113.93L113.959 12.126C114.079 11.5849 114.403 11.1109 114.864 10.8029C115.439 10.4347 116.115 10.255 116.797 10.2888C117.666 10.289 118.331 10.5015 118.793 10.9263C119.026 11.1487 119.209 11.4187 119.328 11.718C119.448 12.0174 119.501 12.3389 119.485 12.6608V13.6595L115.686 13.894C113.93 13.9946 112.57 14.4219 111.606 15.176C111.137 15.5337 110.761 15.9988 110.509 16.532C110.258 17.0653 110.138 17.6512 110.159 18.2404V18.2688C110.144 19.0719 110.356 19.863 110.77 20.5514ZM119.485 15.9225L116.165 16.129C115.475 16.1343 114.802 16.3442 114.232 16.7322C114.017 16.892 113.843 17.1013 113.726 17.3424C113.609 17.5835 113.552 17.8492 113.56 18.1171V18.1307C113.55 18.4025 113.606 18.6727 113.725 18.9177C113.843 19.1626 114.02 19.3749 114.239 19.536C114.767 19.9016 115.401 20.0825 116.042 20.0504C116.653 20.0615 117.257 19.9253 117.804 19.6534C118.301 19.4059 118.724 19.0324 119.032 18.5702C119.334 18.1109 119.493 17.5713 119.485 17.0211V15.9225ZM125.642 7.8756H129.043V10.1512H129.125C129.491 9.37509 130.075 8.7223 130.805 8.27258C131.641 7.78238 132.6 7.53988 133.568 7.57332C135.168 7.57332 136.405 8.05783 137.278 9.02685C138.151 9.99587 138.588 11.3212 138.587 13.0029V22.4086H135.173V13.6891C135.173 12.6562 134.931 11.8587 134.446 11.2965C133.962 10.7343 133.235 10.4532 132.266 10.4532C131.668 10.4392 131.078 10.5937 130.564 10.8989C130.08 11.1954 129.69 11.6234 129.44 12.133C129.164 12.7074 129.028 13.339 129.043 13.9761V22.4083H125.642L125.642 7.8756ZM141.549 19.1748C142.074 20.2636 142.912 21.1708 143.956 21.7798C145.101 22.4176 146.397 22.7353 147.707 22.6997C148.563 22.7128 149.416 22.5854 150.231 22.3226C150.925 22.0962 151.575 21.7507 152.15 21.3017C152.664 20.9014 153.101 20.4114 153.44 19.8556C153.748 19.3495 153.97 18.7959 154.098 18.2172L154.126 18.0663H150.945L150.916 18.1624C150.795 18.5094 150.596 18.8237 150.334 19.0809C150.03 19.3809 149.668 19.6165 149.271 19.7734C148.795 19.9602 148.287 20.051 147.776 20.0408C147.089 20.0594 146.409 19.8861 145.815 19.5403C145.258 19.1975 144.816 18.6962 144.547 18.1006C144.252 17.4322 144.099 16.7101 144.099 15.9804H154.276V14.8834C154.305 13.5578 154.026 12.2435 153.46 11.0445C152.948 9.98327 152.138 9.09449 151.128 8.48736C150.04 7.85891 148.799 7.54332 147.542 7.57543C146.273 7.5434 145.02 7.87146 143.929 8.52167C142.901 9.16144 142.078 10.082 141.557 11.1747C140.97 12.4238 140.681 13.7919 140.713 15.1715V15.1848C140.679 16.5616 140.965 17.9275 141.549 19.1748ZM144.138 13.7043H150.967C150.907 13.1683 150.77 12.6423 150.56 12.1427C150.308 11.5603 149.888 11.0665 149.353 10.7249C148.82 10.4038 148.206 10.2398 147.584 10.252C146.949 10.2407 146.324 10.4095 145.781 10.7388C145.234 11.0871 144.805 11.5907 144.547 12.185C144.338 12.6705 144.201 13.1823 144.138 13.7043Z" fill="black"/>
<path d="M27.1988 16.2024H17.1267C16.8756 16.198 16.6318 16.2867 16.4422 16.4515C16.2527 16.6163 16.1309 16.8454 16.1003 17.0946C16.0608 17.3428 16.1147 17.5968 16.2516 17.8076C16.3885 18.0183 16.5986 18.1708 16.8414 18.2357L24.3231 20.3765C24.6302 20.4633 24.91 20.6272 25.1361 20.8524C25.3621 21.0777 25.5268 21.357 25.6147 21.6637L27.8122 29.251C27.8708 29.4669 27.9991 29.6575 28.1772 29.7929C28.3553 29.9284 28.5732 30.0012 28.7969 30C28.8493 29.9999 28.9017 29.9962 28.9536 29.9889C29.2025 29.9579 29.4311 29.8359 29.5955 29.6465C29.7598 29.4571 29.8484 29.2136 29.8441 28.9629V18.8475C29.8435 18.1461 29.5647 17.4737 29.0688 16.9778C28.5728 16.4818 27.9003 16.2029 27.1988 16.2024Z" fill="black"/>
<path d="M27.1985 0.00017954H17.1264C16.8752 -0.00454417 16.6312 0.0840879 16.4416 0.248923C16.2521 0.413759 16.1304 0.643061 16.1002 0.892436C16.0608 1.14056 16.1147 1.3945 16.2515 1.60523C16.3883 1.81596 16.5984 1.96854 16.8411 2.03352L24.3228 4.17402C24.6299 4.26091 24.9098 4.42479 25.1358 4.65011C25.3618 4.87543 25.5265 5.15473 25.6143 5.46154L27.8119 13.0488C27.8705 13.2646 27.9988 13.4551 28.1768 13.5905C28.3549 13.7259 28.5727 13.7987 28.7963 13.7975C28.8488 13.7974 28.9013 13.7937 28.9533 13.7864C29.2022 13.7554 29.4308 13.6334 29.5952 13.444C29.7595 13.2546 29.8481 13.0111 29.8438 12.7604V2.64496C29.8432 1.9437 29.5643 1.27133 29.0683 0.775459C28.5724 0.279594 27.8999 0.000767106 27.1985 0.00017954Z" fill="black"/>
<path d="M11.1115 0.000222562H1.03881C0.787712 -0.00414573 0.543882 0.084613 0.354381 0.249382C0.164879 0.414152 0.0431135 0.643247 0.0125922 0.892479C-0.0268405 1.1406 0.0270838 1.39454 0.163905 1.60527C0.300726 1.816 0.510716 1.96858 0.753444 2.03357L8.23518 4.17406C8.54229 4.26096 8.82214 4.42483 9.04816 4.65015C9.27419 4.87547 9.4389 5.15477 9.52671 5.46158L11.7243 13.0489C11.7829 13.2647 11.9112 13.4552 12.0893 13.5906C12.2674 13.726 12.4853 13.7988 12.709 13.7975C12.7614 13.7974 12.8137 13.7937 12.8656 13.7864C13.1145 13.7554 13.3432 13.6335 13.5077 13.4441C13.6721 13.2547 13.7607 13.0112 13.7564 12.7604V2.645C13.7558 1.9438 13.477 1.27148 12.9811 0.775619C12.4852 0.279762 11.8128 0.000894049 11.1115 0.000222562Z" fill="black"/>
</svg>
