<svg width="40" height="40" viewBox="-5 -10 40 50" fill="none" xmlns="http://www.w3.org/2000/svg">
  <path d="M27.1988 16.2024H17.1267C16.8756 16.198 16.6318 16.2867 16.4422 16.4515C16.2527 16.6163 16.1309 16.8454 16.1003 17.0946C16.0608 17.3428 16.1147 17.5968 16.2516 17.8076C16.3885 18.0183 16.5986 18.1708 16.8414 18.2357L24.3231 20.3765C24.6302 20.4633 24.91 20.6272 25.1361 20.8524C25.3621 21.0777 25.5268 21.357 25.6147 21.6637L27.8122 29.251C27.8708 29.4669 27.9991 29.6575 28.1772 29.7929C28.3553 29.9284 28.5732 30.0012 28.7969 30C28.8493 29.9999 28.9017 29.9962 28.9536 29.9889C29.2025 29.9579 29.4311 29.8359 29.5955 29.6465C29.7598 29.4571 29.8484 29.2136 29.8441 28.9629V18.8475C29.8435 18.1461 29.5647 17.4737 29.0688 16.9778C28.5728 16.4818 27.9003 16.2029 27.1988 16.2024Z" fill="white"/>
  <path d="M27.1985 0.00017954H17.1264C16.8752 -0.00454417 16.6312 0.0840879 16.4416 0.248923C16.2521 0.413759 16.1304 0.643061 16.1002 0.892436C16.0608 1.14056 16.1147 1.3945 16.2515 1.60523C16.3883 1.81596 16.5984 1.96854 16.8411 2.03352L24.3228 4.17402C24.6299 4.26091 24.9098 4.42479 25.1358 4.65011C25.3618 4.87543 25.5265 5.15473 25.6143 5.46154L27.8119 13.0488C27.8705 13.2646 27.9988 13.4551 28.1768 13.5905C28.3549 13.7259 28.5727 13.7987 28.7963 13.7975C28.8488 13.7974 28.9013 13.7937 28.9533 13.7864C29.2022 13.7554 29.4308 13.6334 29.5952 13.444C29.7595 13.2546 29.8481 13.0111 29.8438 12.7604V2.64496C29.8432 1.9437 29.5643 1.27133 29.0683 0.775459C28.5724 0.279594 27.8999 0.000767106 27.1985 0.00017954Z" fill="white"/>
  <path d="M11.1115 0.000222562H1.03881C0.787712 -0.00414573 0.543882 0.084613 0.354381 0.249382C0.164879 0.414152 0.0431135 0.643247 0.0125922 0.892479C-0.0268405 1.1406 0.0270838 1.39454 0.163905 1.60527C0.300726 1.816 0.510716 1.96858 0.753444 2.03357L8.23518 4.17406C8.54229 4.26096 8.82214 4.42483 9.04816 4.65015C9.27419 4.87547 9.4389 5.15477 9.52671 5.46158L11.7243 13.0489C11.7829 13.2647 11.9112 13.4552 12.0893 13.5906C12.2674 13.726 12.4853 13.7988 12.709 13.7975C12.7614 13.7974 12.8137 13.7937 12.8656 13.7864C13.1145 13.7554 13.3432 13.6335 13.5077 13.4441C13.6721 13.2547 13.7607 13.0112 13.7564 12.7604V2.645C13.7558 1.9438 13.477 1.27148 12.9811 0.775619C12.4852 0.279762 11.8128 0.000894049 11.1115 0.000222562Z" fill="white"/>
</svg>
