<svg width="24" height="24" viewBox="0 0 24 24" fill="none" xmlns="http://www.w3.org/2000/svg">
<g clip-path="url(#clip0_1_68)">
<path d="M19.992 17C20.0031 16.2628 20.0099 15.9937 19.9606 15.4041C19.9559 15.347 19.9506 15.2962 19.9447 15.253C19.9007 14.9282 19.8237 14.6238 19.7226 14.3419C19.68 14.2233 19.6332 14.1094 19.5828 13.9999C19.5738 13.9805 19.5647 13.9611 19.5555 13.942C19.4612 13.7454 19.355 13.5636 19.2404 13.3956C19.3264 13.392 19.4137 13.3898 19.5023 13.3892L19.5555 13.389C20.2632 13.389 20.8883 13.4899 21.401 13.6205C21.4627 13.6362 21.5228 13.6523 21.5813 13.6688L21.5915 13.6717L21.6087 13.6766C22.069 13.8088 22.5875 14.0227 23.0245 14.3595C23.4788 14.7097 23.8921 15.2338 23.9736 15.9559C24.0117 16.2932 24 16.0153 23.9908 16.4244C23.9744 17.1535 23.3769 19 22.6608 19H19.6869C19.8643 18.6252 19.9692 17.9298 19.9822 17.4856C19.985 17.3925 19.9887 17.2199 19.992 17Z" fill="#54656F"/>
<path d="M2.41872 13.6688C2.47715 13.6524 2.53726 13.6362 2.599 13.6205C3.11171 13.49 3.73676 13.389 4.44446 13.389L4.49762 13.3892C4.58626 13.3899 4.67357 13.3921 4.7595 13.3957C4.64492 13.5637 4.53872 13.7455 4.44444 13.942C4.43524 13.9612 4.42615 13.9805 4.41718 14C4.36671 14.1094 4.31992 14.2234 4.27738 14.342C4.17628 14.6239 4.09928 14.9283 4.05525 15.253C4.04938 15.2963 4.04409 15.347 4.03932 15.4041C3.99008 15.9938 3.99682 16.2629 4.00795 17C4.01127 17.22 4.01498 17.3926 4.01771 17.4857C4.03074 17.9298 4.13562 18.6252 4.31303 19H1.33916C0.623061 19 0.0256195 18.1535 0.00922728 17.4245C2.95304e-05 17.0154 -0.0117388 16.2932 0.0263682 15.9559C0.107939 15.2339 0.521192 14.7098 0.975466 14.3596C1.41245 14.0228 1.9309 13.8088 2.39128 13.6766L2.40848 13.6717L2.41872 13.6688Z" fill="#54656F"/>
<mask id="mask0_1_68" style="mask-type:alpha" maskUnits="userSpaceOnUse" x="5" y="12" width="14" height="7">
<path d="M6.37097 18.6728C6.22771 18.5403 6.10436 18.3762 6.00893 18.1973C5.88016 17.9559 5.80223 17.6876 5.79477 17.4335C5.77998 16.9291 5.757 15.9342 5.81696 15.4918C5.84373 15.2944 5.89027 15.111 5.95085 14.9421C6.02317 14.7405 6.11797 14.5597 6.2284 14.3977C6.44704 14.077 6.72693 13.8296 7.01492 13.6386C7.049 13.616 7.08319 13.5941 7.11741 13.5731C7.57939 13.2888 8.09607 13.1117 8.52836 12.9865C8.90312 12.878 9.34966 12.7693 9.85708 12.6823C10.4851 12.5746 11.2063 12.5001 12 12.5001C12.7938 12.5001 13.515 12.5746 14.143 12.6823C14.6504 12.7693 15.0969 12.878 15.4717 12.9865C15.904 13.1117 16.4207 13.2888 16.8826 13.5731C16.9169 13.5941 16.9511 13.616 16.9851 13.6386C17.2731 13.8296 17.553 14.077 17.7717 14.3977C17.8821 14.5597 17.9769 14.7405 18.0492 14.9421C18.1098 15.111 18.1563 15.2944 18.1831 15.4918C18.2431 15.9342 18.2201 16.9291 18.2053 17.4335C18.1978 17.6876 18.1199 17.9559 17.9911 18.1973C17.8957 18.3762 17.7723 18.5403 17.6291 18.6729C17.4139 18.872 17.1537 19 16.8757 19H7.12439C6.84638 19 6.5862 18.872 6.37097 18.6728Z" fill="#54656F"/>
</mask>
<g mask="url(#mask0_1_68)">
<path d="M16.4324 14.4719C16.4081 14.4558 16.3835 14.4401 16.3586 14.4248C16.012 14.2115 15.5979 14.0641 15.1936 13.9471C14.8512 13.8479 14.4411 13.7481 13.974 13.6679C13.3957 13.5688 12.7313 13.5001 12 13.5001C11.2688 13.5001 10.6043 13.5688 10.0261 13.6679C9.55891 13.7481 9.14887 13.8479 8.80649 13.9471C8.4022 14.0641 7.98806 14.2115 7.64147 14.4248C7.61659 14.4401 7.59198 14.4558 7.56768 14.4719C7.36045 14.6094 7.18421 14.771 7.05471 14.9609M16.4324 14.4719L16.9811 13.6446M16.4324 14.4719C16.6396 14.6094 16.8159 14.771 16.9454 14.9609M16.9454 14.9609L17.7717 14.3977M16.9454 14.9609C17.0104 15.0564 17.0656 15.1617 17.1079 15.2797C17.1457 15.3851 17.1751 15.5004 17.1922 15.6261M17.1922 15.6261L18.1831 15.4918M17.1922 15.6261C17.2383 15.9666 17.2217 16.8608 17.2057 17.4042C17.2034 17.4827 17.1757 17.6012 17.1088 17.7266M17.1088 17.7266L17.9911 18.1973M17.1088 17.7266C17.0607 17.8168 17.0035 17.8893 16.9499 17.9389M16.9499 17.9389L17.6291 18.6729M16.9499 17.9389C16.9101 17.9757 16.8804 17.9925 16.8663 17.9989C16.8653 17.9993 16.8644 17.9997 16.8637 18H7.1364C7.13563 17.9997 7.13475 17.9993 7.13377 17.9989C7.11966 17.9925 7.08998 17.9757 7.05017 17.9389C6.99657 17.8893 6.93934 17.8168 6.89125 17.7266C6.82433 17.6012 6.79665 17.4827 6.79434 17.4042C6.77841 16.8608 6.76173 15.9667 6.8079 15.6262C6.82495 15.5004 6.85436 15.3851 6.89215 15.2797C6.93448 15.1617 6.98966 15.0564 7.05471 14.9609M7.05471 14.9609L6.30134 14.4474" stroke="#54656F" stroke-width="2"/>
</g>
<mask id="mask1_1_68" style="mask-type:alpha" maskUnits="userSpaceOnUse" x="8" y="4" width="8" height="8">
<path d="M9.91613 9.03805L9.10219 9.61901M9.91613 9.03805C9.86836 8.97113 9.82379 8.90186 9.78264 8.83049M9.91613 9.03805C10.1224 9.32698 10.3875 9.57121 10.6937 9.75311C11.0749 9.97956 11.5204 10.11 11.9999 10.11C12.4793 10.11 12.9248 9.97956 13.306 9.75311C13.6122 9.57121 13.8774 9.32698 14.0836 9.03805C14.1314 8.97113 14.176 8.90186 14.2171 8.83049C14.432 8.45776 14.5554 8.02519 14.5554 7.56C14.5554 7.42212 14.5446 7.28739 14.5239 7.15644C14.3309 5.93473 13.2719 5 11.9999 5C10.7278 5 9.66888 5.93473 9.47586 7.15644C9.45517 7.28739 9.44434 7.42212 9.44434 7.56C9.44434 8.02519 9.56772 8.45776 9.78264 8.83049M9.78264 8.83049L8.91633 9.33" stroke="black" stroke-width="2"/>
</mask>
<g mask="url(#mask1_1_68)">
<path d="M15.0834 9.33C15.0261 9.42949 14.964 9.52593 14.8976 9.61901C14.6109 10.0206 14.2426 10.3599 13.8167 10.6129C13.285 10.9287 12.6637 11.11 11.9999 11.11C11.3361 11.11 10.7147 10.9287 10.183 10.6129C9.75719 10.3599 9.38885 10.0206 9.10219 9.61901C9.03575 9.52593 8.97369 9.42949 8.91633 9.33C8.61608 8.80927 8.44434 8.20499 8.44434 7.56C8.44434 7.36964 8.4593 7.18272 8.48811 7.00038C8.75647 5.30182 10.2266 4 11.9999 4C13.7732 4 15.2433 5.30182 15.5117 7.00038C15.5405 7.18272 15.5554 7.36964 15.5554 7.56C15.5554 8.20499 15.3837 8.80927 15.0834 9.33Z" fill="#54656F"/>
</g>
<path d="M7.01994 10.0243C7.07943 9.80287 7.11115 9.57012 7.11115 9.33004C7.11115 8.65375 6.8594 8.03766 6.44449 7.56909C5.95586 7.01727 5.24095 6.67004 4.44449 6.67004C2.97174 6.67004 1.77783 7.85729 1.77783 9.33004C1.77783 10.232 2.22561 11.0306 2.91099 11.5142C3.34475 11.8202 3.87368 12 4.44449 12C4.57186 12 4.69716 11.9911 4.81976 11.9738C5.28441 11.9082 5.7106 11.7225 6.06612 11.4492C6.52468 11.0968 6.86567 10.5986 7.01994 10.0243Z" fill="#54656F"/>
<path d="M17.934 11.4493C18.2895 11.7225 18.7157 11.9082 19.1803 11.9738C19.3029 11.9911 19.4282 12 19.5556 12C20.1264 12 20.6553 11.8202 21.0891 11.5141C21.7745 11.0306 22.2222 10.232 22.2222 9.33004C22.2222 7.85729 21.0283 6.67004 19.5556 6.67004C18.7591 6.67004 18.0442 7.01727 17.5556 7.56909C17.1407 8.03766 16.8889 8.65375 16.8889 9.33004C16.8889 9.57012 16.9206 9.80287 16.9801 10.0243C17.1344 10.5986 17.4754 11.0968 17.934 11.4493Z" fill="#54656F"/>
</g>
<defs>
<clipPath id="clip0_1_68">
<rect width="24" height="24" fill="white"/>
</clipPath>
</defs>
</svg>
