<svg width="24" height="24" viewBox="0 0 24 24" fill="none" xmlns="http://www.w3.org/2000/svg">
<path d="M11.999 14.942C14 14.942 15.53 13.412 15.53 11.411V4.35C15.53 2.349 14 0.819 11.999 0.819C9.998 0.819 8.469 2.35 8.469 4.35V11.411C8.469 13.412 9.999 14.942 11.999 14.942ZM18.237 11.412C18.237 14.943 15.295 17.414 12 17.414C8.705 17.414 5.763 14.943 5.763 11.412H3.761C3.761 15.413 6.939 18.709 10.822 19.297V23.181H13.176V19.297C17.06 18.709 20.237 15.413 20.237 11.412H18.237Z" fill="#54656F"/>
</svg>
